<?xml version="1.0" encoding="UTF-8" standalone="no"?>
<!-- Created with Inkscape (http://www.inkscape.org/) -->

<svg
   width="56.214977mm"
   height="49.056297mm"
   viewBox="0 0 56.214977 49.056297"
   version="1.1"
   id="svg5"
   inkscape:version="1.1.2 (0a00cf5339, 2022-02-04)"
   sodipodi:docname="hlogo.svg"
   xmlns:inkscape="http://www.inkscape.org/namespaces/inkscape"
   xmlns:sodipodi="http://sodipodi.sourceforge.net/DTD/sodipodi-0.dtd"
   xmlns="http://www.w3.org/2000/svg"
   xmlns:svg="http://www.w3.org/2000/svg">
  <sodipodi:namedview
     id="namedview7"
     pagecolor="#ffffff"
     bordercolor="#666666"
     borderopacity="1.0"
     inkscape:pageshadow="2"
     inkscape:pageopacity="0.0"
     inkscape:pagecheckerboard="0"
     inkscape:document-units="mm"
     showgrid="false"
     inkscape:zoom="2.8284271"
     inkscape:cx="84.852814"
     inkscape:cy="91.039998"
     inkscape:window-width="1920"
     inkscape:window-height="1016"
     inkscape:window-x="1920"
     inkscape:window-y="147"
     inkscape:window-maximized="1"
     inkscape:current-layer="layer1" />
  <defs
     id="defs2">
    <clipPath
       clipPathUnits="userSpaceOnUse"
       id="clipPath3394">
      <g
         inkscape:label="Clip"
         id="use3396">
        <g
           id="g4425">
          <path
             d="m 84.136895,51.44488 c -0.28878,-0.168201 -0.48762,-0.66139 -0.48762,-1.209432 0,-0.44264 0.0413,-0.544028 0.315849,-0.775028 0.29591,-0.248991 0.383882,-0.265761 1.393762,-0.265761 1.054499,0 1.084429,0.007 1.377979,0.30007 0.245179,0.245181 0.300069,0.38695 0.300069,0.77502 0,0.579371 -0.203078,0.99995 -0.561729,1.16337 -0.326839,0.14891 -2.08762,0.157771 -2.33831,0.0118 z"
             style="fill:#000000;stroke-width:0.0271613"
             id="path4411" />
          <path
             d="m 89.547724,51.44488 c -0.28878,-0.168201 -0.48762,-0.66139 -0.48762,-1.209432 0,-0.44264 0.0413,-0.544028 0.315849,-0.775028 0.29591,-0.248991 0.383882,-0.265761 1.393762,-0.265761 1.054499,0 1.084429,0.007 1.377979,0.30007 0.245179,0.245181 0.300069,0.38695 0.300069,0.77502 0,0.579371 -0.203078,0.99995 -0.561729,1.16337 -0.326839,0.14891 -2.08762,0.157771 -2.33831,0.0118 z"
             style="fill:#000000;stroke-width:0.0271613"
             id="path4413" />
          <path
             d="m 97.576608,51.867257 c -0.28878,-0.168201 -0.48762,-0.66139 -0.48762,-1.209432 0,-0.44264 0.0413,-0.544028 0.315849,-0.775028 0.29591,-0.248991 0.383882,-0.265761 1.393762,-0.265761 1.054499,0 1.084429,0.007 1.377981,0.30007 0.24518,0.245181 0.30007,0.38695 0.30007,0.77502 0,0.579371 -0.20308,0.99995 -0.561732,1.16337 -0.326839,0.14891 -2.08762,0.157771 -2.33831,0.0118 z"
             style="fill:#000000;stroke-width:0.0271613"
             id="path4415" />
          <path
             d="m 105.52788,51.586624 c -0.28878,-0.168201 -0.48762,-0.66139 -0.48762,-1.209432 0,-0.44264 0.0413,-0.544028 0.31584,-0.775028 0.29591,-0.248991 0.38389,-0.265761 1.39377,-0.265761 1.0545,0 1.08443,0.007 1.37798,0.30007 0.24517,0.245181 0.30006,0.38695 0.30006,0.77502 0,0.579371 -0.20307,0.99995 -0.56172,1.16337 -0.32684,0.14891 -2.08762,0.157771 -2.33831,0.0118 z"
             style="fill:#000000;stroke-width:0.0271613"
             id="path4417" />
          <path
             d="m 113.01142,50.838269 c -0.28878,-0.168201 -0.48762,-0.66139 -0.48762,-1.209432 0,-0.44264 0.0413,-0.544028 0.31585,-0.775028 0.29591,-0.248991 0.38388,-0.265761 1.39376,-0.265761 1.0545,0 1.08443,0.007 1.37798,0.30007 0.24518,0.245181 0.30007,0.38695 0.30007,0.77502 0,0.579371 -0.20308,0.99995 -0.56173,1.16337 -0.32684,0.14891 -2.08762,0.157771 -2.33831,0.0118 z"
             style="fill:#000000;stroke-width:0.0271613"
             id="path4419" />
          <path
             d="m 122.4594,51.212446 c -0.28878,-0.168201 -0.48762,-0.66139 -0.48762,-1.209432 0,-0.44264 0.0413,-0.544028 0.31585,-0.775028 0.29591,-0.248991 0.38388,-0.265761 1.39376,-0.265761 1.0545,0 1.08443,0.007 1.37798,0.30007 0.24518,0.245181 0.30007,0.38695 0.30007,0.77502 0,0.579371 -0.20308,0.99995 -0.56173,1.16337 -0.32684,0.14891 -2.08762,0.157771 -2.33831,0.0118 z"
             style="fill:#000000;stroke-width:0.0271613"
             id="path4421" />
          <path
             d="m 128.82042,51.586624 c -0.28878,-0.168201 -0.48762,-0.66139 -0.48762,-1.209432 0,-0.44264 0.0413,-0.544028 0.31584,-0.775028 0.29591,-0.248991 0.38389,-0.265761 1.39377,-0.265761 1.0545,0 1.08443,0.007 1.37798,0.30007 0.24517,0.245181 0.30006,0.38695 0.30006,0.77502 0,0.579371 -0.20307,0.99995 -0.56172,1.16337 -0.32684,0.14891 -2.08762,0.157771 -2.33831,0.0118 z"
             style="fill:#000000;stroke-width:0.0271613"
             id="path4423" />
        </g>
      </g>
    </clipPath>
  </defs>
  <g
     inkscape:label="Layer 1"
     inkscape:groupmode="layer"
     id="layer1"
     transform="translate(-77.849516,-52.83103)">
    <path
       style="fill:#000000;stroke-width:0.113361"
       d="m 83.120601,101.72125 c -1.259556,-0.27338 -2.262196,-0.84873 -3.310704,-1.899817 -0.657473,-0.659087 -1.01877,-1.132634 -1.273006,-1.668501 -0.7463,-1.573031 -0.705979,-0.298707 -0.672948,-21.268366 0.0278,-17.646156 0.04405,-19.061026 0.224979,-19.588959 0.497727,-1.452289 1.835134,-3.041011 3.132489,-3.721123 1.559181,-0.81737 -0.376858,-0.76097 24.978589,-0.727674 l 22.81951,0.02997 0.77963,0.312098 c 1.56612,0.626942 2.84838,1.812434 3.5861,3.31544 0.71993,1.466783 0.67882,0.217009 0.67882,20.637305 0,18.146734 -0.006,18.627431 -0.22355,19.479918 -0.64761,2.532125 -2.51207,4.408449 -5.01725,5.049169 -0.79849,0.20423 -1.69792,0.21273 -22.87621,0.21636 -19.155864,0.003 -22.147447,-0.0185 -22.826449,-0.16582 z m 2.438758,-1.23159 c 0.288057,-0.0372 0.749797,-0.21097 1.026091,-0.38619 0.419249,-0.265877 2.452085,-1.857148 4.611386,-3.609709 0.630498,-0.511737 1.436609,-1.596664 1.833073,-2.467103 0.170389,-0.37409 0.523539,-1.419101 0.784777,-2.322247 0.261238,-0.903144 0.632076,-1.936827 0.824084,-2.297071 0.26749,-0.501863 1.149928,-1.456315 3.774591,-4.082625 1.884019,-1.8852 3.559949,-3.626052 3.724299,-3.868558 0.88622,-1.307715 -0.33479,-2.867364 -2.04412,-2.611034 -0.555602,0.08332 -0.862524,0.357897 -7.317773,6.546632 -1.167221,1.119031 -2.311774,2.163407 -2.543453,2.320837 -0.831841,0.565249 -2.516593,0.900225 -2.850132,0.566686 -0.210589,-0.210589 -0.169273,-0.859083 0.06235,-0.978605 0.10911,-0.0563 0.478948,-0.165837 0.821864,-0.243411 1.190373,-0.269282 1.941875,-0.878433 2.450213,-1.986088 0.145053,-0.31607 0.386299,-1.30099 0.545357,-2.226493 0.34221,-1.991218 0.707323,-3.035322 1.730049,-4.947372 0.42408,-0.792845 0.83311,-1.582907 0.908955,-1.755692 0.31501,-0.717637 0.986769,-1.552027 1.926167,-2.392486 2.630369,-2.353336 6.353473,-5.885523 6.544493,-6.208894 0.27978,-0.473629 0.26965,-1.279784 -0.021,-1.671593 -0.27049,-0.364615 -0.97973,-0.61582 -1.477,-0.523138 -0.24198,0.0451 -0.63932,0.317956 -1.133602,0.778445 -0.418571,0.389954 -1.22015,1.1121 -1.781284,1.604771 -0.561135,0.49267 -1.887454,1.665004 -2.947375,2.605187 -3.023706,2.682118 -5.870932,5.195427 -7.744092,6.835882 -0.946769,0.829149 -1.801891,1.663202 -1.900273,1.853451 -0.09838,0.19025 -0.680811,1.577852 -1.294287,3.083559 -0.613477,1.505708 -1.789125,4.344538 -2.612554,6.308509 -2.012537,4.80014 -2.232826,5.386408 -2.32142,6.178151 -0.09949,0.889116 0.101421,1.96625 0.539185,2.890694 0.458515,0.968264 1.734807,2.265488 2.633906,2.677115 0.602529,0.27584 1.946935,0.50639 2.497085,0.42822 0.124697,-0.0177 0.462405,-0.0626 0.750462,-0.0998 z m 37.943271,-0.0459 c -0.0356,-0.0954 -0.59626,-0.535727 -2.5884,-2.033058 -1.27711,-0.959897 -2.48271,-2.234668 -3.026,-3.199606 -0.2974,-0.528214 -0.66846,-1.485655 -0.99104,-2.557178 -0.57523,-1.910754 -0.75651,-2.38737 -1.11747,-2.938026 l -0.24796,-0.378265 -0.62456,0.649125 c -0.77474,0.805216 -1.29286,1.05853 -2.16508,1.05853 -1.1859,0 -2.09338,-0.687232 -2.48114,-1.878948 -0.27571,-0.847336 0.14309,-2.099032 1.06674,-3.188269 l 0.38451,-0.453442 -1.5198,-1.54602 c -1.76832,-1.798817 -2.08506,-2.327321 -2.08683,-3.482061 -7.9e-4,-0.546076 0.0682,-0.858449 0.2855,-1.290998 0.15763,-0.313839 0.27241,-0.577821 0.25506,-0.586627 -0.0173,-0.0088 -0.2169,-0.100111 -0.44344,-0.2029 -2.66498,-1.209169 -2.18074,-5.01436 0.63862,-5.018256 0.54342,-7.94e-4 0.95363,0.106219 2.04049,0.532096 1.80898,0.708844 5.06288,1.902439 5.18629,1.902439 0.18643,0 -0.047,-0.229925 -2.27162,-2.237118 -1.22762,-1.107647 -2.97763,-2.753581 -3.88892,-3.657631 -1.52915,-1.517 -1.6723,-1.694659 -1.85666,-2.304325 -0.40648,-1.344155 0.004,-2.605152 1.04849,-3.218989 0.46484,-0.273249 0.65504,-0.314755 1.44233,-0.314755 1.15104,0 1.44067,0.164391 3.28746,1.865954 0.74818,0.689345 2.17652,1.978224 3.1741,2.864176 0.99757,0.885953 2.93603,2.607695 4.3077,3.826095 1.37166,1.218399 3.16825,2.791435 3.99241,3.495636 0.82417,0.7042 1.6719,1.482964 1.88386,1.730587 0.38461,0.449329 1.2113,2.313787 3.89138,8.776303 0.64642,1.558707 1.2244,2.948791 1.2844,3.089075 0.06,0.140284 0.16121,0.255061 0.22489,0.255061 0.0783,0 0.11579,-5.104238 0.11579,-15.747018 0,-15.136496 -0.008,-15.773771 -0.21477,-16.437069 -0.28139,-0.90411 -0.79452,-1.687713 -1.56821,-2.394828 -0.73856,-0.674995 -1.21241,-0.93441 -2.15112,-1.177655 -0.6167,-0.159802 -3.04656,-0.178584 -22.94871,-0.177381 -18.223456,0.0011 -22.36175,0.02884 -22.825792,0.152978 -1.965349,0.525777 -3.382636,2.088524 -3.74815,4.132835 -0.127286,0.71191 -0.153463,3.621 -0.143498,15.947701 0.0067,8.292325 0.04369,15.255497 0.0822,15.473716 0.03851,0.218219 0.102811,0.34575 0.142895,0.283401 0.08769,-0.136392 1.116463,-2.584632 2.953383,-7.028354 1.922031,-4.649622 2.002432,-4.811453 2.771616,-5.578743 0.797591,-0.795627 2.971535,-2.719621 4.484348,-3.968759 0.605818,-0.500228 2.136186,-1.854877 3.400817,-3.01033 1.264631,-1.155455 2.533031,-2.296967 2.818669,-2.536695 0.285638,-0.239728 1.275083,-1.110842 2.198769,-1.93581 1.918837,-1.713763 2.331853,-1.95864 3.297453,-1.955067 0.85609,0.0032 1.47207,0.279757 2.00212,0.898995 0.74899,0.87503 0.83283,1.998958 0.23615,3.165677 -0.32681,0.639017 -1.55508,1.846224 -5.758802,5.660014 -1.774305,1.609724 -2.356888,2.181572 -2.290332,2.248128 0.02484,0.02484 0.907164,-0.291817 1.960723,-0.703682 5.273531,-2.06157 5.449841,-2.114221 6.237431,-1.862716 0.55559,0.17742 1.14279,0.718727 1.41419,1.303667 0.29255,0.630526 0.28297,1.659228 -0.0213,2.287798 -0.27514,0.568372 -0.99163,1.221911 -1.53689,1.401864 -0.20915,0.06902 -0.38027,0.141984 -0.38027,0.162133 0,0.02015 0.12703,0.309511 0.28229,0.643031 0.20977,0.45061 0.28258,0.797263 0.2834,1.349326 0.002,1.120903 -0.29215,1.59775 -2.08723,3.387403 l -1.52766,1.523037 0.38795,0.528491 c 0.75604,1.029932 1.0742,1.771989 1.0742,2.505377 0,0.830091 -0.18577,1.27975 -0.75199,1.820207 -0.55395,0.528747 -0.90292,0.658573 -1.770214,0.658573 -0.884679,0 -1.480216,-0.28143 -2.181065,-1.030693 -0.441725,-0.472241 -0.559388,-0.544222 -0.699512,-0.42793 -0.291141,0.241627 -0.581619,0.929666 -1.004559,2.37945 -1.071263,3.67214 -1.634026,4.459474 -5.127098,7.173089 -0.950812,0.738647 -1.728749,1.362204 -1.728749,1.385684 0,0.0235 7.936656,0.0427 17.637017,0.0427 10.28948,0 17.62127,-0.0421 17.59922,-0.10114 z m 5.96991,-0.34364 c 0.95107,-0.468217 2.28129,-1.743778 2.64799,-2.539195 0.44137,-0.957394 0.6167,-1.862128 0.55308,-2.854097 -0.0624,-0.972239 -0.18752,-1.329326 -1.78817,-5.101225 -1.13914,-2.68439 -3.1175,-7.403513 -3.7514,-8.948509 -0.55952,-1.363693 -1.06014,-2.329854 -1.20838,-2.332061 -0.11106,-0.0017 -1.54526,-1.232148 -5.70127,-4.89148 -6.44054,-5.670842 -6.95296,-6.126281 -7.90129,-7.022671 -1.03196,-0.97543 -1.51282,-1.198564 -2.17418,-1.008887 -0.64261,0.184298 -0.91082,0.525923 -0.91082,1.160124 0,0.30397 0.0713,0.690423 0.15854,0.858785 0.19318,0.372972 1.67479,1.813119 5.09748,4.95483 l 2.59204,2.379256 0.54424,1.077115 c 0.29932,0.592414 0.8265,1.503257 1.17151,2.024098 1.08582,1.639243 1.51779,2.971475 1.89485,5.843829 0.25131,1.914427 1.01762,2.852776 2.75341,3.371565 0.97519,0.29146 1.0916,0.374314 1.0916,0.776918 0,0.47946 -0.24315,0.60708 -1.0221,0.536448 -1.18269,-0.107243 -1.98396,-0.580551 -3.54858,-2.096148 -0.75941,-0.73561 -2.14593,-2.047549 -3.08116,-2.915419 -0.93522,-0.867871 -2.33929,-2.202367 -3.12015,-2.965549 -0.78086,-0.76318 -1.56212,-1.441731 -1.73613,-1.507889 -0.48244,-0.183425 -1.21153,-0.139661 -1.7508,0.105094 -0.82982,0.376629 -1.16623,1.473775 -0.6956,2.26855 0.12922,0.218219 1.64952,1.799599 3.37844,3.514178 1.72892,1.714578 3.37815,3.448994 3.66496,3.854258 0.57671,0.814897 0.88576,1.54615 1.50781,3.567584 0.22968,0.74638 0.59766,1.714616 0.81775,2.151638 0.43297,0.859776 1.46069,2.009391 2.51505,2.813368 0.34592,0.263767 1.20956,0.927154 1.9192,1.474201 2.22755,1.717151 2.6704,1.912921 4.22099,1.865871 0.96759,-0.0294 1.1703,-0.0745 1.86109,-0.41458 z M 99.601198,89.606243 c 0.434492,-0.224686 0.681412,-0.595908 0.681412,-1.024443 0,-0.354307 -0.613153,-1.500542 -1.027919,-1.921599 -0.2203,-0.223642 -0.226223,-0.219901 -1.210812,0.764686 l -0.989428,0.989428 0.622176,0.576679 c 0.884189,0.819531 1.282994,0.947022 1.924571,0.615249 z m 13.695172,0.0084 c 0.16836,-0.08852 0.53089,-0.391904 0.80562,-0.67418 l 0.49951,-0.51323 -0.94004,-1.029694 c -0.51703,-0.566331 -0.95385,-1.015382 -0.97071,-0.997889 -0.0169,0.01749 -0.21919,0.312372 -0.4496,0.655288 -0.82139,1.222452 -0.88876,1.50488 -0.50798,2.129428 0.34747,0.569904 0.97114,0.741572 1.5632,0.430277 z M 94.072051,81.556997 c 0.620373,-0.280568 1.20095,-0.510123 1.29017,-0.510123 0.08922,0 0.864274,-0.681789 1.722343,-1.515086 0.858071,-0.833298 1.788375,-1.635559 2.067347,-1.782801 0.708959,-0.374196 1.997079,-0.383644 2.689409,-0.01973 0.3866,0.203208 0.48178,0.220121 0.48178,0.0856 0,-0.0922 0.22988,-0.275694 0.51083,-0.407759 0.87556,-0.41156 1.28724,-1.075407 1.14316,-1.843394 -0.0796,-0.424347 -0.30978,-0.677203 -0.77875,-0.855506 -0.36142,-0.137413 -0.2517,-0.171637 -3.14245,0.98015 -1.091093,0.434734 -2.731227,1.080516 -3.644741,1.43507 -0.972006,0.377256 -1.779574,0.763286 -1.946968,0.93068 -0.4536,0.4536 -1.776725,3.372457 -1.776725,3.919514 0,0.171874 0.249067,0.09693 1.384595,-0.416617 z m 24.953969,0.02834 c -0.12209,-0.653963 -0.71005,-2.04776 -1.20745,-2.862354 -0.57255,-0.93768 -0.53141,-0.914356 -3.76265,-2.132939 -1.24697,-0.470263 -2.82835,-1.087934 -3.51418,-1.372603 -1.50665,-0.625366 -1.97232,-0.661044 -2.44597,-0.187396 -0.39726,0.397256 -0.42933,0.858864 -0.10874,1.565085 0.21741,0.478926 0.78377,0.936315 1.16041,0.937143 0.10602,2.27e-4 0.23855,0.08226 0.29452,0.182281 0.0925,0.165202 0.13709,0.162854 0.48742,-0.02564 0.2804,-0.150871 0.63378,-0.208235 1.29488,-0.210198 1.22824,-0.0037 1.61399,0.21618 3.47485,1.980248 1.45503,1.379342 1.52648,1.429896 2.74922,1.945265 1.56169,0.658229 1.66906,0.670553 1.57769,0.181108 z"
       id="path250" />
    <path
       d="m 80.36445,67.507496 c -0.28878,-0.168201 -0.48762,-0.66139 -0.48762,-1.209432 0,-0.44264 0.0413,-0.544028 0.315849,-0.775028 0.29591,-0.248991 0.383882,-0.265761 1.393762,-0.265761 1.054499,0 1.084429,0.007 1.377979,0.30007 0.245179,0.245181 0.300069,0.38695 0.300069,0.77502 0,0.579371 -0.203078,0.99995 -0.561729,1.16337 -0.326839,0.14891 -2.08762,0.157771 -2.33831,0.0118 z"
       style="fill:#000000;stroke-width:0.0271613"
       id="path2656" />
    <g
       id="g4967"
       transform="translate(0,1.5875)">
      <path
         d="m 84.212624,58.504776 c -0.28878,-0.168201 -0.48762,-0.66139 -0.48762,-1.209432 0,-0.44264 0.0413,-0.544028 0.315849,-0.775028 0.29591,-0.248991 0.383882,-0.265761 1.393762,-0.265761 1.054499,0 1.084429,0.007 1.377979,0.30007 0.245179,0.245181 0.300069,0.38695 0.300069,0.77502 0,0.579371 -0.203078,0.99995 -0.561729,1.16337 -0.326839,0.14891 -2.08762,0.157771 -2.33831,0.0118 z"
         style="fill:#000000;stroke-width:0.0271613"
         id="path2656-9" />
      <path
         d="m 90.073717,58.504776 c -0.28878,-0.168201 -0.48762,-0.66139 -0.48762,-1.209432 0,-0.44264 0.0413,-0.544028 0.315849,-0.775028 0.29591,-0.248991 0.383882,-0.265761 1.393762,-0.265761 1.054499,0 1.084429,0.007 1.377979,0.30007 0.245179,0.245181 0.300069,0.38695 0.300069,0.77502 0,0.579371 -0.203078,0.99995 -0.561729,1.16337 -0.326839,0.14891 -2.08762,0.157771 -2.33831,0.0118 z"
         style="fill:#000000;stroke-width:0.0271613"
         id="path2656-9-7" />
      <path
         d="m 95.982756,58.504737 c -0.28878,-0.168201 -0.48762,-0.66139 -0.48762,-1.209432 0,-0.44264 0.0413,-0.544028 0.315849,-0.775028 0.29591,-0.248991 0.383882,-0.265761 1.393762,-0.265761 1.054499,0 1.084429,0.007 1.377979,0.30007 0.245179,0.245181 0.300069,0.38695 0.300069,0.77502 0,0.579371 -0.203078,0.99995 -0.561729,1.16337 -0.326839,0.14891 -2.08762,0.157771 -2.33831,0.0118 z"
         style="fill:#000000;stroke-width:0.0271613"
         id="path2656-9-7-3" />
      <path
         d="m 102.72611,58.504776 c -0.28878,-0.168201 -0.48762,-0.66139 -0.48762,-1.209432 0,-0.44264 0.0413,-0.544028 0.31585,-0.775028 0.29591,-0.248991 0.38388,-0.265761 1.39376,-0.265761 1.0545,0 1.08443,0.007 1.37798,0.30007 0.24518,0.245181 0.30007,0.38695 0.30007,0.77502 0,0.579371 -0.20308,0.99995 -0.56173,1.16337 -0.32684,0.14891 -2.08762,0.157771 -2.33831,0.0118 z"
         style="fill:#000000;stroke-width:0.0271613"
         id="path2656-9-6" />
      <path
         d="m 108.5872,58.504776 c -0.28878,-0.168201 -0.48762,-0.66139 -0.48762,-1.209432 0,-0.44264 0.0413,-0.544028 0.31585,-0.775028 0.29591,-0.248991 0.38388,-0.265761 1.39376,-0.265761 1.0545,0 1.08443,0.007 1.37798,0.30007 0.24518,0.245181 0.30007,0.38695 0.30007,0.77502 0,0.579371 -0.20308,0.99995 -0.56173,1.16337 -0.32684,0.14891 -2.08762,0.157771 -2.33831,0.0118 z"
         style="fill:#000000;stroke-width:0.0271613"
         id="path2656-9-7-1" />
      <path
         d="m 114.49624,58.504737 c -0.28878,-0.168201 -0.48762,-0.66139 -0.48762,-1.209432 0,-0.44264 0.0413,-0.544028 0.31584,-0.775028 0.29591,-0.248991 0.38389,-0.265761 1.39377,-0.265761 1.0545,0 1.08443,0.007 1.37798,0.30007 0.24517,0.245181 0.30006,0.38695 0.30006,0.77502 0,0.579371 -0.20307,0.99995 -0.56172,1.16337 -0.32684,0.14891 -2.08762,0.157771 -2.33831,0.0118 z"
         style="fill:#000000;stroke-width:0.0271613"
         id="path2656-9-7-3-2" />
      <path
         d="m 120.39725,58.504776 c -0.28878,-0.168201 -0.48762,-0.66139 -0.48762,-1.209432 0,-0.44264 0.0413,-0.544028 0.31585,-0.775028 0.29591,-0.248991 0.38388,-0.265761 1.39376,-0.265761 1.0545,0 1.08443,0.007 1.37798,0.30007 0.24518,0.245181 0.30007,0.38695 0.30007,0.77502 0,0.579371 -0.20308,0.99995 -0.56173,1.16337 -0.32684,0.14891 -2.08762,0.157771 -2.33831,0.0118 z"
         style="fill:#000000;stroke-width:0.0271613"
         id="path2656-9-7-1-1" />
      <path
         d="m 126.30629,58.504737 c -0.28878,-0.168201 -0.48762,-0.66139 -0.48762,-1.209432 0,-0.44264 0.0413,-0.544028 0.31584,-0.775028 0.29591,-0.248991 0.38389,-0.265761 1.39377,-0.265761 1.0545,0 1.08443,0.007 1.37798,0.30007 0.24517,0.245181 0.30006,0.38695 0.30006,0.77502 0,0.579371 -0.20307,0.99995 -0.56172,1.16337 -0.32684,0.14891 -2.08762,0.157771 -2.33831,0.0118 z"
         style="fill:#000000;stroke-width:0.0271613"
         id="path2656-9-7-3-2-9" />
    </g>
    <path
       d="m 89.889456,67.507535 c -0.28878,-0.168201 -0.48762,-0.66139 -0.48762,-1.209432 0,-0.44264 0.0413,-0.544028 0.315849,-0.775028 0.29591,-0.248991 0.383882,-0.265761 1.393762,-0.265761 1.054499,0 1.084429,0.007 1.377979,0.30007 0.245179,0.245181 0.300069,0.38695 0.300069,0.77502 0,0.579371 -0.203078,0.99995 -0.561729,1.16337 -0.326839,0.14891 -2.08762,0.157771 -2.33831,0.0118 z"
       style="fill:#000000;stroke-width:0.0271613"
       id="path2656-1" />
    <path
       d="m 80.43382,73.213353 c -0.28878,-0.168201 -0.48762,-0.66139 -0.48762,-1.209432 0,-0.44264 0.0413,-0.544028 0.315849,-0.775028 0.29591,-0.248991 0.383882,-0.265761 1.393762,-0.265761 1.054499,0 1.084429,0.007 1.377979,0.30007 0.245179,0.245181 0.300069,0.38695 0.300069,0.77502 0,0.579371 -0.203078,0.99995 -0.561729,1.16337 -0.326839,0.14891 -2.08762,0.157771 -2.33831,0.0118 z"
       style="fill:#000000;stroke-width:0.0271613"
       id="path2656-1-8" />
    <path
       d="m 130.82272,67.528356 c 0.28878,-0.168201 0.48762,-0.66139 0.48762,-1.209432 0,-0.44264 -0.0413,-0.544028 -0.31585,-0.775028 -0.29591,-0.248991 -0.38388,-0.265761 -1.39376,-0.265761 -1.0545,0 -1.08443,0.007 -1.37798,0.30007 -0.24518,0.245181 -0.30007,0.38695 -0.30007,0.77502 0,0.579371 0.20308,0.99995 0.56173,1.16337 0.32684,0.14891 2.08762,0.157771 2.33831,0.0118 z"
       style="fill:#000000;stroke-width:0.0271613"
       id="path2656-7" />
    <path
       d="m 121.29772,67.528395 c 0.28878,-0.168201 0.48762,-0.66139 0.48762,-1.209432 0,-0.44264 -0.0413,-0.544028 -0.31585,-0.775028 -0.29591,-0.248991 -0.38388,-0.265761 -1.39376,-0.265761 -1.0545,0 -1.08443,0.007 -1.37798,0.30007 -0.24518,0.245181 -0.30007,0.38695 -0.30007,0.77502 0,0.579371 0.20308,0.99995 0.56173,1.16337 0.32684,0.14891 2.08762,0.157771 2.33831,0.0118 z"
       style="fill:#000000;stroke-width:0.0271613"
       id="path2656-1-9" />
    <path
       d="m 130.75335,73.234213 c 0.28878,-0.168201 0.48762,-0.66139 0.48762,-1.209432 0,-0.44264 -0.0413,-0.544028 -0.31585,-0.775028 -0.29591,-0.248991 -0.38388,-0.265761 -1.39376,-0.265761 -1.0545,0 -1.08443,0.007 -1.37798,0.30007 -0.24518,0.245181 -0.30007,0.38695 -0.30007,0.77502 0,0.579371 0.20308,0.99995 0.56173,1.16337 0.32684,0.14891 2.08762,0.157771 2.33831,0.0118 z"
       style="fill:#000000;stroke-width:0.0271613"
       id="path2656-1-8-2" />
    <g
       id="g3392"
       clip-path="url(#clipPath3394)"
       transform="matrix(1,0,0,-1,-1.071105,100.81256)" />
  </g>
</svg>
